<?xml version="1.0" standalone="no"?>
<!DOCTYPE svg PUBLIC "-//W3C//DTD SVG 20010904//EN"
 "http://www.w3.org/TR/2001/REC-SVG-20010904/DTD/svg10.dtd">
<svg version="1.0" xmlns="http://www.w3.org/2000/svg"
 width="300.000000pt" height="300.000000pt" viewBox="0 0 300.000000 300.000000"
 preserveAspectRatio="xMidYMid meet">
<metadata>
Created by potrace 1.10, written by Peter Selinger 2001-2011
</metadata>
<g transform="translate(0.000000,300.000000) scale(0.100000,-0.100000)"
fill="#000000" stroke="none">
<path d="M1530 2175 c-18 -21 -5 -43 27 -47 17 -2 29 -10 31 -21 3 -12 -2 -16
-19 -15 -12 2 -24 -3 -26 -10 -3 -9 5 -12 28 -10 37 3 48 -15 27 -45 -13 -17
-15 -17 -41 5 -15 13 -27 33 -27 44 0 11 -9 27 -20 37 -11 9 -17 23 -14 30 7
18 -22 41 -42 33 -24 -9 -13 -49 15 -56 20 -5 22 -7 9 -18 -18 -14 -68 0 -68
18 0 6 -10 10 -22 8 -17 -2 -23 -10 -23 -28 0 -27 32 -41 45 -20 11 18 57 1
64 -23 8 -32 -10 -44 -34 -22 -16 14 -22 15 -35 5 -18 -15 -20 -41 -3 -58 9
-9 7 -13 -5 -18 -21 -8 -50 14 -43 32 7 18 -21 45 -39 38 -22 -9 -28 -37 -9
-51 9 -7 21 -10 27 -6 13 8 27 -17 27 -48 0 -31 23 -44 50 -29 10 6 28 10 39
10 28 0 28 -36 0 -45 -30 -10 -22 -50 11 -50 21 0 25 4 23 28 -1 22 2 27 15
25 13 -3 17 -14 17 -48 0 -57 10 -74 36 -60 25 14 24 32 -2 56 -19 17 -19 19
-3 31 11 8 23 9 34 3 10 -5 21 -6 25 -2 4 4 4 -3 0 -16 -4 -13 -2 -29 5 -37
17 -20 50 -1 50 28 0 29 11 44 35 48 15 3 20 12 20 34 0 23 -5 30 -25 35 -35
8 -41 61 -8 75 29 13 31 49 2 53 -16 2 -20 9 -16 31 3 22 -1 30 -16 35 -11 4
-23 13 -26 21 -3 9 -12 12 -22 8 -10 -4 -20 0 -26 10 -11 21 -32 22 -48 2z
m128 -71 c4 -27 -26 -40 -46 -20 -13 13 -13 18 -2 31 18 21 44 15 48 -11z
m-138 -24 c0 -13 -7 -20 -20 -20 -13 0 -20 7 -20 20 0 13 7 20 20 20 13 0 20
-7 20 -20z m161 -20 c12 0 12 -27 -1 -35 -6 -3 -15 4 -20 17 -9 22 -10 21 -7
-7 2 -26 -1 -30 -20 -27 -13 2 -23 -2 -23 -7 0 -6 -4 -11 -9 -11 -11 0 17 62
33 72 6 4 17 6 24 3 8 -3 18 -5 23 -5z m-118 -49 c20 -22 37 -43 37 -49 0 -7
-42 -32 -55 -32 -11 0 -4 29 10 40 8 7 12 16 9 21 -8 14 -35 11 -33 -3 3 -27
-2 -38 -16 -38 -13 0 -15 7 -10 34 5 22 3 36 -5 41 -9 6 -9 10 1 16 21 13 22
12 62 -30z m87 -42 c0 -20 -24 -26 -35 -9 -4 6 -4 17 -1 25 7 20 36 7 36 -16z
m-166 -6 c14 -35 -44 -51 -66 -19 -12 17 -10 22 15 33 26 12 43 7 51 -14z
m-76 -36 c2 -12 -3 -17 -17 -17 -12 0 -21 6 -21 13 0 31 32 34 38 4z m120 -20
c3 -22 -1 -27 -18 -27 -23 0 -35 22 -26 46 10 25 41 12 44 -19z m134 -2 c2
-19 -1 -40 -6 -45 -18 -18 -36 -11 -36 15 0 30 -24 43 -46 25 -10 -9 -18 -10
-26 -2 -14 14 36 41 78 42 29 0 32 -3 36 -35z"/>
<path d="M1283 2093 c-50 -72 -65 -164 -41 -245 15 -51 74 -117 148 -166 l59
-40 35 17 c20 9 35 19 36 22 0 3 -28 23 -62 45 -177 109 -234 220 -173 339 28
56 27 70 -2 28z"/>
<path d="M1754 2009 c19 -71 17 -107 -7 -156 -26 -49 -95 -112 -164 -147 -18
-9 -33 -19 -33 -22 0 -3 3 -3 8 -1 4 2 27 14 52 26 66 32 88 46 116 70 13 11
24 16 24 10 0 -16 -56 -66 -107 -95 -56 -34 -61 -65 -5 -34 56 32 112 88 133
134 25 55 24 140 -1 191 -11 22 -18 33 -16 24z"/>
<path d="M1372 1594 c-76 -53 -112 -113 -112 -184 0 -61 23 -142 46 -161 17
-14 17 -16 -5 49 -34 97 -2 166 110 241 85 57 99 59 152 22 137 -94 175 -211
106 -331 l-21 -35 31 34 c38 43 61 109 61 175 0 66 -42 142 -106 190 -45 34
-47 35 -76 20 -17 -9 -41 -13 -54 -10 -13 4 -24 3 -24 -2 0 -5 -7 -9 -15 -9
-8 0 -15 4 -15 8 0 5 -7 6 -15 3 -11 -5 -13 -2 -9 10 9 22 5 21 -54 -20z"/>
<path d="M1465 1550 c-4 -6 10 -10 34 -10 23 0 41 5 41 10 0 6 -15 10 -34 10
-19 0 -38 -4 -41 -10z"/>
<path d="M1423 1493 c-29 -2 -53 -8 -53 -13 0 -6 51 -9 125 -7 69 1 125 5 125
10 0 4 -27 7 -59 7 -33 0 -65 1 -73 3 -7 2 -37 2 -65 0z"/>
<path d="M1400 1420 l-85 -5 85 -5 c47 -3 89 -2 93 1 15 12 -7 14 -93 9z"/>
<path d="M1548 1413 c23 -2 61 -2 85 0 23 2 4 4 -43 4 -47 0 -66 -2 -42 -4z"/>
<path d="M1330 1366 c0 -2 14 -33 30 -70 25 -56 37 -70 66 -82 20 -8 39 -13
41 -10 8 8 -25 58 -56 83 -18 16 -21 23 -10 23 35 0 98 -96 100 -152 0 -17 4
-12 15 17 15 42 49 83 60 73 3 -4 -6 -19 -20 -35 -30 -32 -33 -43 -10 -43 31
0 56 22 77 68 11 26 23 50 25 55 8 15 -42 6 -79 -15 -24 -13 -43 -34 -52 -56
l-14 -35 -5 40 c-8 58 -35 93 -93 119 -46 22 -75 30 -75 20z"/>
<path d="M1460 1340 c20 -13 220 -13 220 0 0 6 -46 10 -117 10 -80 0 -113 -3
-103 -10z"/>
<path d="M845 1011 c-8 -15 3 -31 21 -31 9 0 14 7 12 17 -4 20 -24 28 -33 14z"/>
<path d="M1475 1010 c-8 -14 3 -30 21 -30 8 0 14 9 14 20 0 21 -24 28 -35 10z"/>
<path d="M1605 1002 c-11 -2 -30 -13 -42 -25 -58 -52 -3 -156 76 -143 42 6 60
21 44 37 -8 8 -17 8 -32 -1 -43 -23 -89 17 -77 66 8 31 49 48 78 33 14 -8 23
-8 31 0 6 6 8 13 5 16 -10 10 -63 21 -83 17z"/>
<path d="M2330 920 c0 -73 3 -90 15 -90 12 0 15 16 15 84 0 65 -3 85 -15 90
-13 4 -15 -9 -15 -84z"/>
<path d="M680 998 c-1 -2 -2 -38 -3 -81 l-2 -77 57 0 c38 0 62 5 72 16 20 19
20 25 2 50 -10 13 -11 23 -4 31 14 18 1 50 -25 57 -21 6 -97 8 -97 4z m95 -48
c0 -10 -12 -16 -32 -18 -28 -3 -33 0 -33 18 0 18 5 21 33 18 20 -2 32 -8 32
-18z m5 -60 c0 -16 -7 -20 -35 -20 -28 0 -35 4 -35 20 0 16 7 20 35 20 28 0
35 -4 35 -20z"/>
<path d="M1068 920 c-32 -71 -34 -80 -18 -80 10 0 22 9 25 20 5 15 15 20 40
20 24 0 38 -6 45 -20 6 -11 19 -20 30 -20 17 0 15 8 -18 80 -23 49 -43 80 -52
80 -10 0 -29 -30 -52 -80z m66 18 c9 -35 8 -38 -14 -38 -11 0 -20 3 -20 8 0
19 13 52 20 52 4 0 10 -10 14 -22z"/>
<path d="M2160 928 c-18 -40 -35 -79 -37 -85 -8 -21 26 -14 37 7 8 15 21 20
54 20 35 0 45 -4 49 -20 5 -19 37 -29 37 -11 0 4 -16 43 -35 85 -47 100 -61
100 -105 4z m69 2 c10 -29 9 -30 -19 -30 -27 0 -28 1 -17 30 6 17 14 30 18 30
4 0 12 -13 18 -30z"/>
<path d="M1719 966 c-2 -2 -2 -30 -1 -61 3 -49 7 -57 29 -66 15 -5 31 -5 41 0
11 6 24 6 35 0 15 -9 17 -3 17 61 0 56 -3 70 -15 70 -11 0 -15 -12 -15 -44 0
-47 -17 -70 -44 -60 -12 4 -16 19 -16 55 0 34 -4 49 -13 49 -8 0 -16 -2 -18
-4z"/>
<path d="M1882 903 c2 -53 6 -68 18 -68 11 0 16 13 18 44 3 33 8 44 23 48 10
3 19 14 19 24 0 21 -11 24 -27 8 -8 -8 -13 -8 -17 0 -4 6 -14 11 -22 11 -12 0
-14 -13 -12 -67z"/>
<path d="M2000 950 c-22 -22 -26 -60 -10 -90 13 -23 63 -35 90 -20 25 13 16
33 -11 25 -22 -7 -59 2 -59 16 0 5 23 9 50 9 43 0 50 3 50 19 0 23 -45 61 -71
61 -11 0 -28 -9 -39 -20z m70 -25 c11 -13 7 -15 -24 -15 -34 0 -44 8 -29 23
11 12 40 8 53 -8z"/>
<path d="M841 900 c1 -49 4 -60 17 -60 14 0 17 10 17 60 0 50 -3 60 -17 60
-14 0 -17 -10 -17 -60z"/>
<path d="M917 942 c-55 -61 35 -140 93 -82 24 24 25 48 4 78 -19 28 -74 30
-97 4z m77 -28 c10 -26 -5 -45 -33 -42 -31 4 -41 36 -16 54 19 14 41 9 49 -12z"/>
<path d="M1226 942 c-22 -25 -20 -48 5 -73 16 -16 29 -20 50 -15 32 6 38 -4
14 -24 -12 -10 -21 -10 -40 -2 -15 7 -26 8 -30 2 -11 -18 6 -30 45 -30 56 0
70 19 70 94 l0 63 -49 1 c-35 1 -53 -3 -65 -16z m84 -32 c0 -23 -23 -42 -43
-34 -23 8 -28 31 -12 48 19 18 55 9 55 -14z"/>
<path d="M1380 899 c0 -46 3 -59 15 -59 11 0 15 11 15 41 0 32 4 42 20 46 34
9 23 31 -15 31 l-35 0 0 -59z"/>
<path d="M1470 900 c0 -53 2 -60 20 -60 18 0 20 7 20 60 0 53 -2 60 -20 60
-18 0 -20 -7 -20 -60z"/>
</g>
</svg>
